<?xml version="1.0" encoding="utf-8"?>
<!-- Generator: Adobe Illustrator 25.2.0, SVG Export Plug-In . SVG Version: 6.00 Build 0)  -->
<svg version="1.1" id="logo" xmlns="http://www.w3.org/2000/svg" xmlns:xlink="http://www.w3.org/1999/xlink" x="0px" y="0px"
	 viewBox="0 0 84 96" style="enable-background:new 0 0 84 96;" xml:space="preserve">
<style type="text/css">
	.st0{fill:#1D1D1B;stroke:#EF9B56;stroke-width:3;}
	.st1{fill:#EF9B56;}
</style>
<g transform="translate(-8.000000, -2.000000)">
	<g transform="translate(11.000000, 5.000000)">
		<polygon id="Shape" class="st0" points="39,-0.4 -0.4,21.8 -0.4,67.2 39,90.4 78.4,68.2 78.4,22.8 		"/>
		<path class="st1" d="M32.3,62.2c-5.9,0.5-1.8-23.3-3-26c-2.7,1.2-5.5-2.3-2.4-4.1C57.1,17.7,65.7,64,32.3,62.2z M37.6,34.3h-1.5
			l-1.6,0.2v23l3.1-0.6c1-0.1,2-0.4,3.1-0.6c1-0.2,1.9-0.6,2.8-1c0.8-0.4,1.6-1,2.2-1.7c1.1-1.2,1.9-2.5,2.5-4
			c0.5-1.5,0.8-3.1,0.8-4.7c0-1.4-0.2-2.7-0.7-4c-0.4-1.3-1.1-2.4-2-3.4c-1-1-2.2-1.8-3.6-2.3C41,34.5,39.3,34.2,37.6,34.3z"/>
	</g>
</g>
</svg>
